<svg xmlns="http://www.w3.org/2000/svg" xmlns:xlink="http://www.w3.org/1999/xlink" xmlns:s="https://github.com/nturley/netlistsvg" width="1341" height="601.5">
<rect width="100%" height="100%" fill="white"/>  
  <style>svg {
    stroke:#000;
    fill:none;
  }
  text {
    fill:#000;
    stroke:none;
    font-size:10px;
    font-weight: bold;
    font-family: "Courier New", monospace;
  }
  .nodelabel {
    text-anchor: middle;
  }
  .inputPortLabel {
    text-anchor: end;
  }
  .splitjoinBody {
    fill:#000;
  }</style>
  <g s:type="add" transform="translate(850,27)" s:width="25" s:height="25" id="cell_$add$/mnt/c/Users/sarva/OneDrive/Desktop/Verilog/Projects/RISCV$20Pipelined$20Architechture/rtl/execution_unit.v:38$7">
    <s:alias val="$add"/>
    <circle r="12.5" cx="12.5" cy="12.5" class="cell_$add$/mnt/c/Users/sarva/OneDrive/Desktop/Verilog/Projects/RISCV$20Pipelined$20Architechture/rtl/execution_unit.v:38$7"/>
    <line x1="7.5" x2="17.5" y1="12.5" y2="12.5" class="cell_$add$/mnt/c/Users/sarva/OneDrive/Desktop/Verilog/Projects/RISCV$20Pipelined$20Architechture/rtl/execution_unit.v:38$7"/>
    <line x1="12.5" x2="12.5" y1="7.5" y2="17.5" class="cell_$add$/mnt/c/Users/sarva/OneDrive/Desktop/Verilog/Projects/RISCV$20Pipelined$20Architechture/rtl/execution_unit.v:38$7"/>
    <g s:x="3" s:y="5" s:pid="A"/>
    <g s:x="3" s:y="20" s:pid="B"/>
    <g s:x="25" s:y="12.5" s:pid="Y"/>
  </g>
  <g s:type="eq" transform="translate(1108.6666666666667,499.5)" s:width="25" s:height="25" id="cell_$eq$/mnt/c/Users/sarva/OneDrive/Desktop/Verilog/Projects/RISCV$20Pipelined$20Architechture/rtl/execution_unit.v:28$2">
    <s:alias val="$eq"/>
    <circle r="12.5" cx="12.5" cy="12.5" class="cell_$eq$/mnt/c/Users/sarva/OneDrive/Desktop/Verilog/Projects/RISCV$20Pipelined$20Architechture/rtl/execution_unit.v:28$2"/>
    <line x1="7.5" x2="17.5" y1="10" y2="10" class="cell_$eq$/mnt/c/Users/sarva/OneDrive/Desktop/Verilog/Projects/RISCV$20Pipelined$20Architechture/rtl/execution_unit.v:28$2"/>
    <line x1="7.5" x2="17.5" y1="15" y2="15" class="cell_$eq$/mnt/c/Users/sarva/OneDrive/Desktop/Verilog/Projects/RISCV$20Pipelined$20Architechture/rtl/execution_unit.v:28$2"/>
    <g s:x="3" s:y="5" s:pid="A"/>
    <g s:x="3" s:y="20" s:pid="B"/>
    <g s:x="25" s:y="12.5" s:pid="Y"/>
  </g>
  <g s:type="gt" transform="translate(132.66666666666666,191.5)" s:width="25" s:height="25" id="cell_$gt$/mnt/c/Users/sarva/OneDrive/Desktop/Verilog/Projects/RISCV$20Pipelined$20Architechture/rtl/execution_unit.v:34$5">
    <s:alias val="$gt"/>
    <circle r="12.5" cx="12.5" cy="12.5" class="cell_$gt$/mnt/c/Users/sarva/OneDrive/Desktop/Verilog/Projects/RISCV$20Pipelined$20Architechture/rtl/execution_unit.v:34$5"/>
    <line x1="7.5" x2="17.5" y1="7.5" y2="12.5" class="cell_$gt$/mnt/c/Users/sarva/OneDrive/Desktop/Verilog/Projects/RISCV$20Pipelined$20Architechture/rtl/execution_unit.v:34$5"/>
    <line x1="7.5" x2="17.5" y1="17.5" y2="12.5" class="cell_$gt$/mnt/c/Users/sarva/OneDrive/Desktop/Verilog/Projects/RISCV$20Pipelined$20Architechture/rtl/execution_unit.v:34$5"/>
    <g s:x="3" s:y="5" s:pid="A"/>
    <g s:x="3" s:y="20" s:pid="B"/>
    <g s:x="25" s:y="12.5" s:pid="Y"/>
  </g>
  <g s:type="lt" transform="translate(251.66666666666666,286.5)" s:width="25" s:height="25" id="cell_$lt$/mnt/c/Users/sarva/OneDrive/Desktop/Verilog/Projects/RISCV$20Pipelined$20Architechture/rtl/execution_unit.v:32$4">
    <s:alias val="$lt"/>
    <circle r="12.5" cx="12.5" cy="12.5" class="cell_$lt$/mnt/c/Users/sarva/OneDrive/Desktop/Verilog/Projects/RISCV$20Pipelined$20Architechture/rtl/execution_unit.v:32$4"/>
    <line x1="7.5" x2="17.5" y1="12.5" y2="7.5" class="cell_$lt$/mnt/c/Users/sarva/OneDrive/Desktop/Verilog/Projects/RISCV$20Pipelined$20Architechture/rtl/execution_unit.v:32$4"/>
    <line x1="7.5" x2="17.5" y1="12.5" y2="17.5" class="cell_$lt$/mnt/c/Users/sarva/OneDrive/Desktop/Verilog/Projects/RISCV$20Pipelined$20Architechture/rtl/execution_unit.v:32$4"/>
    <g s:x="3" s:y="5" s:pid="A"/>
    <g s:x="3" s:y="20" s:pid="B"/>
    <g s:x="25" s:y="12.5" s:pid="Y"/>
  </g>
  <g s:type="generic" transform="translate(358,386.5)" s:width="30" s:height="40" id="cell_$ne$/mnt/c/Users/sarva/OneDrive/Desktop/Verilog/Projects/RISCV$20Pipelined$20Architechture/rtl/execution_unit.v:30$3">
    <text x="15" y="-4" class="nodelabel cell_$ne$/mnt/c/Users/sarva/OneDrive/Desktop/Verilog/Projects/RISCV$20Pipelined$20Architechture/rtl/execution_unit.v:30$3" s:attribute="ref">$ne</text>
    <rect width="30" height="40" s:generic="body" class="cell_$ne$/mnt/c/Users/sarva/OneDrive/Desktop/Verilog/Projects/RISCV$20Pipelined$20Architechture/rtl/execution_unit.v:30$3"/>
    <g transform="translate(0,10)" s:x="0" s:y="10" s:pid="in0" id="port_$ne$/mnt/c/Users/sarva/OneDrive/Desktop/Verilog/Projects/RISCV$20Pipelined$20Architechture/rtl/execution_unit.v:30$3~A">
      <text x="-3" y="-4" class="inputPortLabel cell_$ne$/mnt/c/Users/sarva/OneDrive/Desktop/Verilog/Projects/RISCV$20Pipelined$20Architechture/rtl/execution_unit.v:30$3">A</text>
    </g>
    <g transform="translate(0,30)" s:x="0" s:y="10" s:pid="in0" id="port_$ne$/mnt/c/Users/sarva/OneDrive/Desktop/Verilog/Projects/RISCV$20Pipelined$20Architechture/rtl/execution_unit.v:30$3~B">
      <text x="-3" y="-4" class="inputPortLabel cell_$ne$/mnt/c/Users/sarva/OneDrive/Desktop/Verilog/Projects/RISCV$20Pipelined$20Architechture/rtl/execution_unit.v:30$3">B</text>
    </g>
    <g transform="translate(30,10)" s:x="30" s:y="10" s:pid="out0" id="port_$ne$/mnt/c/Users/sarva/OneDrive/Desktop/Verilog/Projects/RISCV$20Pipelined$20Architechture/rtl/execution_unit.v:30$3~Y">
      <text x="5" y="-4" style="fill:#000; stroke:none" class="cell_$ne$/mnt/c/Users/sarva/OneDrive/Desktop/Verilog/Projects/RISCV$20Pipelined$20Architechture/rtl/execution_unit.v:30$3">Y</text>
    </g>
  </g>
  <g s:type="mux" transform="translate(581,146.5)" s:width="20" s:height="40" id="cell_$procmux$21">
    <s:alias val="$pmux"/>
    <s:alias val="$mux"/>
    <s:alias val="$_MUX_"/>
    <path d="M0,0 L20,10 L20,30 L0,40 Z" class="cell_$procmux$21"/>
    <g s:x="0" s:y="10" s:pid="A"/>
    <g s:x="0" s:y="30" s:pid="B"/>
    <g s:x="10" s:y="35" s:pid="S"/>
    <g s:x="20" s:y="20" s:pid="Y"/>
  </g>
  <g s:type="mux" transform="translate(1110.3333333333333,156.5)" s:width="20" s:height="40" id="cell_$procmux$30">
    <s:alias val="$pmux"/>
    <s:alias val="$mux"/>
    <s:alias val="$_MUX_"/>
    <path d="M0,0 L20,10 L20,30 L0,40 Z" class="cell_$procmux$30"/>
    <g s:x="0" s:y="10" s:pid="A"/>
    <g s:x="0" s:y="30" s:pid="B"/>
    <g s:x="10" s:y="35" s:pid="S"/>
    <g s:x="20" s:y="20" s:pid="Y"/>
  </g>
  <g s:type="mux" transform="translate(1208,166.5)" s:width="20" s:height="40" id="cell_$procmux$36">
    <s:alias val="$pmux"/>
    <s:alias val="$mux"/>
    <s:alias val="$_MUX_"/>
    <path d="M0,0 L20,10 L20,30 L0,40 Z" class="cell_$procmux$36"/>
    <g s:x="0" s:y="10" s:pid="A"/>
    <g s:x="0" s:y="30" s:pid="B"/>
    <g s:x="10" s:y="35" s:pid="S"/>
    <g s:x="20" s:y="20" s:pid="Y"/>
  </g>
  <g s:type="mux" transform="translate(253.33333333333334,136.5)" s:width="20" s:height="40" id="cell_$procmux$9">
    <s:alias val="$pmux"/>
    <s:alias val="$mux"/>
    <s:alias val="$_MUX_"/>
    <path d="M0,0 L20,10 L20,30 L0,40 Z" class="cell_$procmux$9"/>
    <g s:x="0" s:y="10" s:pid="A"/>
    <g s:x="0" s:y="30" s:pid="B"/>
    <g s:x="10" s:y="35" s:pid="S"/>
    <g s:x="20" s:y="20" s:pid="Y"/>
  </g>
  <g s:type="generic" transform="translate(12,22)" s:width="30" s:height="40" id="cell_alu">
    <text x="15" y="-4" class="nodelabel cell_alu" s:attribute="ref">alu_unit</text>
    <rect width="30" height="0" s:generic="body" class="cell_alu"/>
  </g>
  <g s:type="generic" transform="translate(54,22)" s:width="30" s:height="40" id="cell_exmem">
    <text x="15" y="-4" class="nodelabel cell_exmem" s:attribute="ref">ex_mem_reg</text>
    <rect width="30" height="0" s:generic="body" class="cell_exmem"/>
  </g>
  <g s:type="inputExt" transform="translate(96,22)" s:width="30" s:height="20" id="cell_clk">
    <text x="15" y="-4" class="nodelabel cell_clk" s:attribute="ref">clk</text>
    <s:alias val="$_inputExt_"/>
    <path d="M0,0 L0,20 L15,20 L30,10 L15,0 Z" class="cell_clk"/>
    <g s:x="28" s:y="10" s:pid="Y"/>
  </g>
  <g s:type="inputExt" transform="translate(138,22)" s:width="30" s:height="20" id="cell_rst">
    <text x="15" y="-4" class="nodelabel cell_rst" s:attribute="ref">rst</text>
    <s:alias val="$_inputExt_"/>
    <path d="M0,0 L0,20 L15,20 L30,10 L15,0 Z" class="cell_rst"/>
    <g s:x="28" s:y="10" s:pid="Y"/>
  </g>
  <g s:type="inputExt" transform="translate(12,186.5)" s:width="30" s:height="20" id="cell_ex_rs1_data">
    <text x="15" y="-4" class="nodelabel cell_ex_rs1_data" s:attribute="ref">ex_rs1_data</text>
    <s:alias val="$_inputExt_"/>
    <path d="M0,0 L0,20 L15,20 L30,10 L15,0 Z" class="cell_ex_rs1_data"/>
    <g s:x="28" s:y="10" s:pid="Y"/>
  </g>
  <g s:type="inputExt" transform="translate(12,296.5)" s:width="30" s:height="20" id="cell_ex_rs2_data">
    <text x="15" y="-4" class="nodelabel cell_ex_rs2_data" s:attribute="ref">ex_rs2_data</text>
    <s:alias val="$_inputExt_"/>
    <path d="M0,0 L0,20 L15,20 L30,10 L15,0 Z" class="cell_ex_rs2_data"/>
    <g s:x="28" s:y="10" s:pid="Y"/>
  </g>
  <g s:type="inputExt" transform="translate(755,22)" s:width="30" s:height="20" id="cell_ex_pc">
    <text x="15" y="-4" class="nodelabel cell_ex_pc" s:attribute="ref">ex_pc</text>
    <s:alias val="$_inputExt_"/>
    <path d="M0,0 L0,20 L15,20 L30,10 L15,0 Z" class="cell_ex_pc"/>
    <g s:x="28" s:y="10" s:pid="Y"/>
  </g>
  <g s:type="inputExt" transform="translate(180,22)" s:width="30" s:height="20" id="cell_ex_rd">
    <text x="15" y="-4" class="nodelabel cell_ex_rd" s:attribute="ref">ex_rd</text>
    <s:alias val="$_inputExt_"/>
    <path d="M0,0 L0,20 L15,20 L30,10 L15,0 Z" class="cell_ex_rd"/>
    <g s:x="28" s:y="10" s:pid="Y"/>
  </g>
  <g s:type="inputExt" transform="translate(516,22)" s:width="30" s:height="20" id="cell_ex_alu_control">
    <text x="15" y="-4" class="nodelabel cell_ex_alu_control" s:attribute="ref">ex_alu_control</text>
    <s:alias val="$_inputExt_"/>
    <path d="M0,0 L0,20 L15,20 L30,10 L15,0 Z" class="cell_ex_alu_control"/>
    <g s:x="28" s:y="10" s:pid="Y"/>
  </g>
  <g s:type="inputExt" transform="translate(755,87)" s:width="30" s:height="20" id="cell_ex_imm_val">
    <text x="15" y="-4" class="nodelabel cell_ex_imm_val" s:attribute="ref">ex_imm_val</text>
    <s:alias val="$_inputExt_"/>
    <path d="M0,0 L0,20 L15,20 L30,10 L15,0 Z" class="cell_ex_imm_val"/>
    <g s:x="28" s:y="10" s:pid="Y"/>
  </g>
  <g s:type="inputExt" transform="translate(1089,569.5)" s:width="30" s:height="20" id="cell_ex_beq_control">
    <text x="15" y="-4" class="nodelabel cell_ex_beq_control" s:attribute="ref">ex_beq_control</text>
    <s:alias val="$_inputExt_"/>
    <path d="M0,0 L0,20 L15,20 L30,10 L15,0 Z" class="cell_ex_beq_control"/>
    <g s:x="28" s:y="10" s:pid="Y"/>
  </g>
  <g s:type="inputExt" transform="translate(358,474.5)" s:width="30" s:height="20" id="cell_ex_bneq_control">
    <text x="15" y="-4" class="nodelabel cell_ex_bneq_control" s:attribute="ref">ex_bneq_control</text>
    <s:alias val="$_inputExt_"/>
    <path d="M0,0 L0,20 L15,20 L30,10 L15,0 Z" class="cell_ex_bneq_control"/>
    <g s:x="28" s:y="10" s:pid="Y"/>
  </g>
  <g s:type="inputExt" transform="translate(113,261.5)" s:width="30" s:height="20" id="cell_ex_bgt_control">
    <text x="15" y="-4" class="nodelabel cell_ex_bgt_control" s:attribute="ref">ex_bgt_control</text>
    <s:alias val="$_inputExt_"/>
    <path d="M0,0 L0,20 L15,20 L30,10 L15,0 Z" class="cell_ex_bgt_control"/>
    <g s:x="28" s:y="10" s:pid="Y"/>
  </g>
  <g s:type="inputExt" transform="translate(232,356.5)" s:width="30" s:height="20" id="cell_ex_blt_control">
    <text x="15" y="-4" class="nodelabel cell_ex_blt_control" s:attribute="ref">ex_blt_control</text>
    <s:alias val="$_inputExt_"/>
    <path d="M0,0 L0,20 L15,20 L30,10 L15,0 Z" class="cell_ex_blt_control"/>
    <g s:x="28" s:y="10" s:pid="Y"/>
  </g>
  <g s:type="inputExt" transform="translate(612,22)" s:width="30" s:height="20" id="cell_ex_jump">
    <text x="15" y="-4" class="nodelabel cell_ex_jump" s:attribute="ref">ex_jump</text>
    <s:alias val="$_inputExt_"/>
    <path d="M0,0 L0,20 L15,20 L30,10 L15,0 Z" class="cell_ex_jump"/>
    <g s:x="28" s:y="10" s:pid="Y"/>
  </g>
  <g s:type="inputExt" transform="translate(342,22)" s:width="30" s:height="20" id="cell_ex_reg_write">
    <text x="15" y="-4" class="nodelabel cell_ex_reg_write" s:attribute="ref">ex_reg_write</text>
    <s:alias val="$_inputExt_"/>
    <path d="M0,0 L0,20 L15,20 L30,10 L15,0 Z" class="cell_ex_reg_write"/>
    <g s:x="28" s:y="10" s:pid="Y"/>
  </g>
  <g s:type="outputExt" transform="translate(1263,176.5)" s:width="30" s:height="20" id="cell_take_branch">
    <text x="15" y="-4" class="nodelabel cell_take_branch" s:attribute="ref">take_branch</text>
    <s:alias val="$_outputExt_"/>
    <path d="M30,0 L30,20 L15,20 L0,10 L15,0 Z" class="cell_take_branch"/>
    <g s:x="0" s:y="10" s:pid="A"/>
  </g>
  <g s:type="outputExt" transform="translate(689,22)" s:width="30" s:height="20" id="cell_take_jump">
    <text x="15" y="-4" class="nodelabel cell_take_jump" s:attribute="ref">take_jump</text>
    <s:alias val="$_outputExt_"/>
    <path d="M30,0 L30,20 L15,20 L0,10 L15,0 Z" class="cell_take_jump"/>
    <g s:x="0" s:y="10" s:pid="A"/>
  </g>
  <g s:type="outputExt" transform="translate(910,29.5)" s:width="30" s:height="20" id="cell_branch_target">
    <text x="15" y="-4" class="nodelabel cell_branch_target" s:attribute="ref">branch_target</text>
    <s:alias val="$_outputExt_"/>
    <path d="M30,0 L30,20 L15,20 L0,10 L15,0 Z" class="cell_branch_target"/>
    <g s:x="0" s:y="10" s:pid="A"/>
  </g>
  <g s:type="outputExt" transform="translate(910,94.5)" s:width="30" s:height="20" id="cell_jump_target">
    <text x="15" y="-4" class="nodelabel cell_jump_target" s:attribute="ref">jump_target</text>
    <s:alias val="$_outputExt_"/>
    <path d="M30,0 L30,20 L15,20 L0,10 L15,0 Z" class="cell_jump_target"/>
    <g s:x="0" s:y="10" s:pid="A"/>
  </g>
  <g s:type="outputExt" transform="translate(222,22)" s:width="30" s:height="20" id="cell_mem_rd">
    <text x="15" y="-4" class="nodelabel cell_mem_rd" s:attribute="ref">mem_rd</text>
    <s:alias val="$_outputExt_"/>
    <path d="M30,0 L30,20 L15,20 L0,10 L15,0 Z" class="cell_mem_rd"/>
    <g s:x="0" s:y="10" s:pid="A"/>
  </g>
  <g s:type="outputExt" transform="translate(426,22)" s:width="30" s:height="20" id="cell_mem_reg_write">
    <text x="15" y="-4" class="nodelabel cell_mem_reg_write" s:attribute="ref">mem_reg_write</text>
    <s:alias val="$_outputExt_"/>
    <path d="M30,0 L30,20 L15,20 L0,10 L15,0 Z" class="cell_mem_reg_write"/>
    <g s:x="0" s:y="10" s:pid="A"/>
  </g>
  <g s:type="outputExt" transform="translate(270,22)" s:width="30" s:height="20" id="cell_mem_result">
    <text x="15" y="-4" class="nodelabel cell_mem_result" s:attribute="ref">mem_result</text>
    <s:alias val="$_outputExt_"/>
    <path d="M30,0 L30,20 L15,20 L0,10 L15,0 Z" class="cell_mem_result"/>
    <g s:x="0" s:y="10" s:pid="A"/>
  </g>
  <g s:type="constant" transform="translate(113,136.5)" s:width="30" s:height="20" id="cell_0">
    <text x="15" y="-4" class="nodelabel cell_0" s:attribute="ref">0</text>
    <s:alias val="$_constant_"/>
    <rect width="30" height="20" class="cell_0"/>
    <g s:x="30" s:y="10" s:pid="Y"/>
  </g>
  <line x1="783" x2="853" y1="32" y2="32" class="net_68,69,70,71,72,73,74,75,76,77,78,79,80,81,82,83,84,85,86,87,88,89,90,91,92,93,94,95,96,97,98,99"/>
  <line x1="783" x2="825" y1="97" y2="97" class="net_111,112,113,114,115,116,117,118,119,120,121,122,123,124,125,126,127,128,129,130,131,132,133,134,135,136,137,138,139,140,141,142"/>
  <line x1="825" x2="825" y1="97" y2="47" class="net_111,112,113,114,115,116,117,118,119,120,121,122,123,124,125,126,127,128,129,130,131,132,133,134,135,136,137,138,139,140,141,142"/>
  <line x1="825" x2="853" y1="47" y2="47" class="net_111,112,113,114,115,116,117,118,119,120,121,122,123,124,125,126,127,128,129,130,131,132,133,134,135,136,137,138,139,140,141,142"/>
  <line x1="40" x2="98" y1="196.5" y2="196.5" class="net_4,5,6,7,8,9,10,11,12,13,14,15,16,17,18,19,20,21,22,23,24,25,26,27,28,29,30,31,32,33,34,35"/>
  <line x1="98" x2="98" y1="196.5" y2="504.5" class="net_4,5,6,7,8,9,10,11,12,13,14,15,16,17,18,19,20,21,22,23,24,25,26,27,28,29,30,31,32,33,34,35"/>
  <circle cx="98" cy="196.5" r="2" style="fill:#000" class="net_4,5,6,7,8,9,10,11,12,13,14,15,16,17,18,19,20,21,22,23,24,25,26,27,28,29,30,31,32,33,34,35"/>
  <line x1="98" x2="1111.6666666666667" y1="504.5" y2="504.5" class="net_4,5,6,7,8,9,10,11,12,13,14,15,16,17,18,19,20,21,22,23,24,25,26,27,28,29,30,31,32,33,34,35"/>
  <line x1="40" x2="135.66666666666666" y1="196.5" y2="196.5" class="net_4,5,6,7,8,9,10,11,12,13,14,15,16,17,18,19,20,21,22,23,24,25,26,27,28,29,30,31,32,33,34,35"/>
  <line x1="40" x2="98" y1="196.5" y2="196.5" class="net_4,5,6,7,8,9,10,11,12,13,14,15,16,17,18,19,20,21,22,23,24,25,26,27,28,29,30,31,32,33,34,35"/>
  <line x1="98" x2="98" y1="196.5" y2="291.5" class="net_4,5,6,7,8,9,10,11,12,13,14,15,16,17,18,19,20,21,22,23,24,25,26,27,28,29,30,31,32,33,34,35"/>
  <circle cx="98" cy="291.5" r="2" style="fill:#000" class="net_4,5,6,7,8,9,10,11,12,13,14,15,16,17,18,19,20,21,22,23,24,25,26,27,28,29,30,31,32,33,34,35"/>
  <line x1="98" x2="254.66666666666666" y1="291.5" y2="291.5" class="net_4,5,6,7,8,9,10,11,12,13,14,15,16,17,18,19,20,21,22,23,24,25,26,27,28,29,30,31,32,33,34,35"/>
  <line x1="40" x2="98" y1="196.5" y2="196.5" class="net_4,5,6,7,8,9,10,11,12,13,14,15,16,17,18,19,20,21,22,23,24,25,26,27,28,29,30,31,32,33,34,35"/>
  <line x1="98" x2="98" y1="196.5" y2="397" class="net_4,5,6,7,8,9,10,11,12,13,14,15,16,17,18,19,20,21,22,23,24,25,26,27,28,29,30,31,32,33,34,35"/>
  <circle cx="98" cy="397" r="2" style="fill:#000" class="net_4,5,6,7,8,9,10,11,12,13,14,15,16,17,18,19,20,21,22,23,24,25,26,27,28,29,30,31,32,33,34,35"/>
  <line x1="98" x2="358" y1="397" y2="397" class="net_4,5,6,7,8,9,10,11,12,13,14,15,16,17,18,19,20,21,22,23,24,25,26,27,28,29,30,31,32,33,34,35"/>
  <line x1="40" x2="88" y1="306.5" y2="306.5" class="net_36,37,38,39,40,41,42,43,44,45,46,47,48,49,50,51,52,53,54,55,56,57,58,59,60,61,62,63,64,65,66,67"/>
  <line x1="88" x2="88" y1="306.5" y2="515.5" class="net_36,37,38,39,40,41,42,43,44,45,46,47,48,49,50,51,52,53,54,55,56,57,58,59,60,61,62,63,64,65,66,67"/>
  <line x1="88" x2="1064" y1="515.5" y2="515.5" class="net_36,37,38,39,40,41,42,43,44,45,46,47,48,49,50,51,52,53,54,55,56,57,58,59,60,61,62,63,64,65,66,67"/>
  <line x1="1064" x2="1064" y1="515.5" y2="519.5" class="net_36,37,38,39,40,41,42,43,44,45,46,47,48,49,50,51,52,53,54,55,56,57,58,59,60,61,62,63,64,65,66,67"/>
  <circle cx="88" cy="306.5" r="2" style="fill:#000" class="net_36,37,38,39,40,41,42,43,44,45,46,47,48,49,50,51,52,53,54,55,56,57,58,59,60,61,62,63,64,65,66,67"/>
  <line x1="1064" x2="1111.6666666666667" y1="519.5" y2="519.5" class="net_36,37,38,39,40,41,42,43,44,45,46,47,48,49,50,51,52,53,54,55,56,57,58,59,60,61,62,63,64,65,66,67"/>
  <line x1="40" x2="88" y1="306.5" y2="306.5" class="net_36,37,38,39,40,41,42,43,44,45,46,47,48,49,50,51,52,53,54,55,56,57,58,59,60,61,62,63,64,65,66,67"/>
  <line x1="88" x2="88" y1="306.5" y2="211.5" class="net_36,37,38,39,40,41,42,43,44,45,46,47,48,49,50,51,52,53,54,55,56,57,58,59,60,61,62,63,64,65,66,67"/>
  <line x1="88" x2="135.66666666666666" y1="211.5" y2="211.5" class="net_36,37,38,39,40,41,42,43,44,45,46,47,48,49,50,51,52,53,54,55,56,57,58,59,60,61,62,63,64,65,66,67"/>
  <line x1="40" x2="254.66666666666666" y1="306.5" y2="306.5" class="net_36,37,38,39,40,41,42,43,44,45,46,47,48,49,50,51,52,53,54,55,56,57,58,59,60,61,62,63,64,65,66,67"/>
  <line x1="40" x2="88" y1="306.5" y2="306.5" class="net_36,37,38,39,40,41,42,43,44,45,46,47,48,49,50,51,52,53,54,55,56,57,58,59,60,61,62,63,64,65,66,67"/>
  <line x1="88" x2="88" y1="306.5" y2="408" class="net_36,37,38,39,40,41,42,43,44,45,46,47,48,49,50,51,52,53,54,55,56,57,58,59,60,61,62,63,64,65,66,67"/>
  <line x1="88" x2="326" y1="408" y2="408" class="net_36,37,38,39,40,41,42,43,44,45,46,47,48,49,50,51,52,53,54,55,56,57,58,59,60,61,62,63,64,65,66,67"/>
  <line x1="326" x2="326" y1="408" y2="417" class="net_36,37,38,39,40,41,42,43,44,45,46,47,48,49,50,51,52,53,54,55,56,57,58,59,60,61,62,63,64,65,66,67"/>
  <circle cx="88" cy="408" r="2" style="fill:#000" class="net_36,37,38,39,40,41,42,43,44,45,46,47,48,49,50,51,52,53,54,55,56,57,58,59,60,61,62,63,64,65,66,67"/>
  <line x1="326" x2="358" y1="417" y2="417" class="net_36,37,38,39,40,41,42,43,44,45,46,47,48,49,50,51,52,53,54,55,56,57,58,59,60,61,62,63,64,65,66,67"/>
  <line x1="273.33333333333337" x2="581" y1="156.5" y2="156.5" class="net_224"/>
  <line x1="276.66666666666663" x2="326" y1="299" y2="299" class="net_222"/>
  <line x1="326" x2="326" y1="299" y2="176.5" class="net_222"/>
  <line x1="326" x2="581" y1="176.5" y2="176.5" class="net_222"/>
  <line x1="260" x2="591" y1="366.5" y2="366.5" class="net_146"/>
  <line x1="591" x2="591" y1="366.5" y2="181.5" class="net_146"/>
  <line x1="601" x2="1110.3333333333333" y1="166.5" y2="166.5" class="net_225"/>
  <line x1="389" x2="1064" y1="397" y2="397" class="net_223"/>
  <line x1="1064" x2="1064" y1="397" y2="186.5" class="net_223"/>
  <line x1="1064" x2="1110.3333333333333" y1="186.5" y2="186.5" class="net_223"/>
  <line x1="386" x2="1120.3333333333333" y1="484.5" y2="484.5" class="net_144"/>
  <line x1="1120.3333333333333" x2="1120.3333333333333" y1="484.5" y2="191.5" class="net_144"/>
  <line x1="1130.3333333333333" x2="1208" y1="176.5" y2="176.5" class="net_226"/>
  <line x1="1133.6666666666667" x2="1183" y1="512" y2="512" class="net_220"/>
  <line x1="1183" x2="1183" y1="512" y2="196.5" class="net_220"/>
  <line x1="1183" x2="1208" y1="196.5" y2="196.5" class="net_220"/>
  <line x1="1117" x2="1218" y1="579.5" y2="579.5" class="net_143"/>
  <line x1="1218" x2="1218" y1="579.5" y2="201.5" class="net_143"/>
  <line x1="143" x2="253.33333333333334" y1="146.5" y2="146.5" class="net_227"/>
  <line x1="157.66666666666666" x2="207" y1="204" y2="204" class="net_221"/>
  <line x1="207" x2="207" y1="204" y2="166.5" class="net_221"/>
  <line x1="207" x2="253.33333333333334" y1="166.5" y2="166.5" class="net_221"/>
  <line x1="141" x2="263.33333333333337" y1="271.5" y2="271.5" class="net_145"/>
  <line x1="263.33333333333337" x2="263.33333333333337" y1="271.5" y2="171.5" class="net_145"/>
  <line x1="1228" x2="1263" y1="186.5" y2="186.5" class="net_149"/>
  <line x1="640" x2="689" y1="32" y2="32" class="net_147"/>
  <line x1="875" x2="910" y1="39.5" y2="39.5" class="net_150,151,152,153,154,155,156,157,158,159,160,161,162,163,164,165,166,167,168,169,170,171,172,173,174,175,176,177,178,179,180,181"/>
  <line x1="875" x2="885" y1="39.5" y2="39.5" class="net_150,151,152,153,154,155,156,157,158,159,160,161,162,163,164,165,166,167,168,169,170,171,172,173,174,175,176,177,178,179,180,181"/>
  <line x1="885" x2="885" y1="39.5" y2="104.5" class="net_150,151,152,153,154,155,156,157,158,159,160,161,162,163,164,165,166,167,168,169,170,171,172,173,174,175,176,177,178,179,180,181"/>
  <circle cx="885" cy="39.5" r="2" style="fill:#000" class="net_150,151,152,153,154,155,156,157,158,159,160,161,162,163,164,165,166,167,168,169,170,171,172,173,174,175,176,177,178,179,180,181"/>
  <line x1="885" x2="910" y1="104.5" y2="104.5" class="net_150,151,152,153,154,155,156,157,158,159,160,161,162,163,164,165,166,167,168,169,170,171,172,173,174,175,176,177,178,179,180,181"/>
</svg>
